<svg width="64" height="16" viewBox="0 0 64 16" fill="none" xmlns="http://www.w3.org/2000/svg">
<path d="M37.1157 13.804C37.1157 13.9251 37.1488 13.9912 37.2259 13.9912C37.2815 13.9879 37.335 13.9688 37.38 13.9361L57.2479 1.01762C57.582 0.780438 57.9836 0.656893 58.3933 0.665198H62.7655C63.4373 0.665198 63.8889 1.11674 63.8889 1.78855V10.1256C63.8889 11.1278 63.6686 11.7115 62.7655 12.2511L57.4682 15.4339C57.4165 15.4716 57.3556 15.4944 57.2919 15.5C57.2259 15.5 57.1708 15.4559 57.1708 15.2687V5.53304C57.1708 5.42291 57.1378 5.34581 57.0607 5.34581C57.0051 5.34908 56.9516 5.36819 56.9065 5.40088L42.38 14.8392C42.0543 15.0669 41.6651 15.1863 41.2677 15.1806H31.6312C30.9593 15.1806 30.5078 14.7291 30.5078 14.0573V2.05286C30.5078 1.96476 30.4637 1.88767 30.3977 1.88767C30.3421 1.89093 30.2886 1.91004 30.2435 1.94273L20.662 7.70264C20.5629 7.75771 20.5408 7.81278 20.5408 7.85683C20.5408 7.90088 20.5519 7.93392 20.6289 8L27.4682 14.8392C27.5563 14.9273 27.6223 15.0044 27.6223 15.0705C27.6223 15.1366 27.5232 15.1916 27.4021 15.1916H21.2127C20.7281 15.1916 20.3536 15.1145 20.0893 14.8502L15.9373 10.6982C15.9229 10.6793 15.9046 10.6637 15.8838 10.6523C15.8629 10.6409 15.8399 10.6341 15.8162 10.6322C15.7697 10.6384 15.7249 10.6533 15.684 10.6762L8.74569 14.8502C8.41469 15.0745 8.02203 15.1899 7.62234 15.1806H1.23468C0.56287 15.1806 0.111328 14.7291 0.111328 14.0573V5.87445C0.111328 4.86123 0.331592 4.28855 1.23468 3.7489L6.56507 0.544053C6.6076 0.515983 6.65729 0.500695 6.70824 0.5C6.78534 0.5 6.82939 0.588106 6.82939 0.764317V11.7115C6.82939 11.8216 6.86243 11.8767 6.93952 11.8767C6.99539 11.867 7.04821 11.8444 7.09371 11.8106L25.1003 0.984581C25.4517 0.751157 25.8683 0.635456 26.2897 0.654185H35.9814C36.6532 0.654185 37.1047 1.10573 37.1047 1.77753L37.1157 13.804Z" fill="#05141F"/>
</svg>
