<svg width="14" height="16" viewBox="0 0 14 16" fill="none" xmlns="http://www.w3.org/2000/svg">
<path d="M9.8125 11C12.125 11 14 12.875 14 15.1875C14 15.6562 13.625 16 13.1562 16H0.8125C0.34375 16 0 15.6562 0 15.1875C0 12.875 1.84375 11 4.15625 11H9.8125ZM1.5625 14.5H12.4062C12.0938 13.375 11.0625 12.5 9.8125 12.5H4.15625C2.90625 12.5 1.875 13.375 1.5625 14.5ZM7 3.5C5.59375 3.5 4.5 4.625 4.5 6C4.5 6.625 4.71875 7.15625 5.0625 7.59375C4.71875 7.96875 4.5 8.46875 4.5 9C4.5 9.0625 4.5 9.09375 4.5 9.125C3.59375 8.40625 3 7.28125 3 6C3 3.8125 4.78125 2 7 2C9.1875 2 11 3.8125 11 6C11 6.46875 10.9062 6.90625 10.75 7.3125C10.5 7.71875 10.0312 8 9.5 8H9.21875C9.125 7.875 9.03125 7.71875 8.90625 7.59375C9.25 7.15625 9.5 6.625 9.5 6C9.5 4.625 8.375 3.5 7 3.5ZM1.5 7C1.21875 7 1 6.78125 1 6.5V6C1 2.71875 3.6875 0 7 0C10.2812 0 13 2.71875 13 6V6.5C12.9688 8.4375 11.4062 10 9.5 10H6.5C5.9375 10 5.5 9.5625 5.5 9C5.5 8.46875 5.9375 8 6.5 8H7.5C8.03125 8 8.5 8.46875 8.5 9H9.5C10.875 9 12 7.90625 12 6.5V6C12 3.25 9.75 1 7 1C4.21875 1 2 3.25 2 6V6.5C2 6.78125 1.75 7 1.5 7Z" fill="#05141F"/>
</svg>
