<svg width="64" height="16" viewBox="0 0 64 16" fill="none" xmlns="http://www.w3.org/2000/svg">
<path d="M37.0044 13.804C37.0044 13.9251 37.0374 13.9912 37.1145 13.9912C37.1701 13.9879 37.2236 13.9688 37.2687 13.9361L57.1366 1.01762C57.4707 0.780438 57.8722 0.656893 58.2819 0.665198H62.6542C63.326 0.665198 63.7775 1.11674 63.7775 1.78855V10.1256C63.7775 11.1278 63.5573 11.7115 62.6542 12.2511L57.3568 15.4339C57.3052 15.4716 57.2443 15.4944 57.1806 15.5C57.1145 15.5 57.0595 15.4559 57.0595 15.2687V5.53304C57.0595 5.42291 57.0264 5.34581 56.9493 5.34581C56.8937 5.34908 56.8402 5.36819 56.7952 5.40088L42.2687 14.8392C41.9429 15.0669 41.5538 15.1863 41.1564 15.1806H31.5198C30.848 15.1806 30.3965 14.7291 30.3965 14.0573V2.05286C30.3965 1.96476 30.3524 1.88767 30.2863 1.88767C30.2307 1.89093 30.1772 1.91004 30.1322 1.94273L20.5507 7.70264C20.4515 7.75771 20.4295 7.81278 20.4295 7.85683C20.4295 7.90088 20.4405 7.93392 20.5176 8L27.3568 14.8392C27.4449 14.9273 27.511 15.0044 27.511 15.0705C27.511 15.1366 27.4119 15.1916 27.2907 15.1916H21.1013C20.6167 15.1916 20.2423 15.1145 19.978 14.8502L15.826 10.6982C15.8116 10.6793 15.7933 10.6637 15.7724 10.6523C15.7516 10.6409 15.7285 10.6341 15.7048 10.6322C15.6584 10.6384 15.6136 10.6533 15.5727 10.6762L8.63436 14.8502C8.30336 15.0745 7.9107 15.1899 7.51101 15.1806H1.12335C0.451542 15.1806 0 14.7291 0 14.0573V5.87445C0 4.86123 0.220264 4.28855 1.12335 3.7489L6.45374 0.544053C6.49628 0.515983 6.54596 0.500695 6.59692 0.5C6.67401 0.5 6.71806 0.588106 6.71806 0.764317V11.7115C6.71806 11.8216 6.7511 11.8767 6.82819 11.8767C6.88406 11.867 6.93688 11.8444 6.98238 11.8106L24.989 0.984581C25.3404 0.751157 25.7569 0.635456 26.1784 0.654185H35.87C36.5418 0.654185 36.9934 1.10573 36.9934 1.77753L37.0044 13.804Z" fill="white"/>
</svg>
