<svg width="24" height="24" viewBox="0 0 24 24" fill="none" xmlns="http://www.w3.org/2000/svg">
<path d="M23.1934 8.78772C22.2122 4.35316 18.5299 0.926685 13.9809 0.161997C13.6227 0.101406 12.3363 -0.0928995 10.9228 0.0533523C7.92928 0.331231 5.44124 1.59317 3.43216 3.788C1.9031 5.45945 0.974857 7.42549 0.64107 9.63703C0.162113 12.8086 0.900682 15.7054 2.88857 18.2617C4.07855 19.7911 5.58006 20.9486 7.36449 21.7446C7.45986 21.7874 7.55311 21.8344 7.66755 21.8887C7.72901 22.5521 8.00452 23.1246 8.55129 23.5299C8.58414 23.5539 8.61699 23.5769 8.6509 23.5989C9.07051 23.8715 9.56961 24 10.0719 24H13.7562C13.7562 23.6605 13.7573 23.3199 13.7584 22.9564C14.3475 22.9564 14.8752 22.9564 15.4029 22.9564C15.5269 22.9564 15.6519 22.9668 15.7738 22.9522C16.044 22.9188 16.2856 22.6743 16.2951 22.4403C16.3047 22.2063 16.0705 21.9556 15.7929 21.9159C15.689 21.9013 15.5809 21.9117 15.475 21.9117C15.0162 21.9117 14.5573 21.9149 14.0985 21.9096C13.983 21.9086 13.8675 21.8804 13.7658 21.8668V20.8556H14.1473C14.6061 20.8556 15.0649 20.8577 15.5237 20.8556C15.8692 20.8535 16.0218 20.8263 16.1277 20.6634C16.363 20.303 16.0853 19.8224 15.6509 19.813C15.617 19.813 15.5831 19.813 15.547 19.8151C15.1603 19.836 14.7703 19.8214 14.3825 19.8193C14.1769 19.8193 13.9714 19.813 13.7287 19.8078V18.783C13.538 18.783 13.3833 18.783 13.2285 18.783C12.1689 18.783 11.1103 18.783 10.0507 18.783C8.88932 18.783 8.02677 19.4578 7.71947 20.6216C7.71947 20.6216 7.7004 20.7135 7.68768 20.7532L7.56159 20.6989C4.07431 19.1518 1.37964 15.4474 1.5068 11.1821C1.65727 6.14683 5.00043 2.51038 9.18284 1.35499C13.6513 0.121255 18.2396 1.88568 20.7541 5.61406C21.96 7.40251 22.5672 9.38631 22.5078 11.5205C22.4209 14.6681 21.1186 17.2891 18.6804 19.3659C18.8997 19.648 19.0905 19.8924 19.2982 20.1578C19.6457 19.836 19.9891 19.5602 20.2836 19.2405C23.0472 16.2434 24.0729 12.7626 23.1934 8.78668V8.78772Z" fill="white"/>
<path d="M14.712 6.61066C14.6707 6.15205 14.356 5.84179 13.8951 5.81045C13.6842 5.79687 13.4723 5.80627 13.2603 5.80105C13.2105 5.8 13.1607 5.77807 13.0982 5.76344C13.0569 5.65584 13.0156 5.5472 12.97 5.42706L11.0319 5.44169C10.9906 5.56496 10.9577 5.66107 10.9069 5.8115C10.6271 5.8115 10.3802 5.80105 10.1344 5.81359C9.66921 5.83761 9.35238 6.1437 9.3047 6.60021C9.29622 6.68587 9.30046 6.77362 9.30046 6.86033C9.30046 9.46884 9.31423 12.0763 9.28986 14.6838C9.28456 15.2897 9.68405 15.7671 10.3633 15.7493C11.2799 15.7253 12.1975 15.743 13.1141 15.743C13.308 15.743 13.5019 15.7472 13.6958 15.743C14.3655 15.7253 14.7004 15.3962 14.7152 14.7464C14.7163 14.6942 14.7152 14.642 14.7152 14.5897C14.7152 12.0335 14.7152 9.47824 14.7152 6.92197C14.7152 6.8175 14.7205 6.71303 14.711 6.60961L14.712 6.61066ZM14.1939 14.5396C14.1939 15.2019 14.1748 15.2207 13.5168 15.2218C12.4762 15.2228 11.4356 15.2249 10.3961 15.2218C9.87902 15.2197 9.82392 15.1664 9.82286 14.6482C9.81968 13.3623 9.8218 12.0753 9.8218 10.7893C9.8218 9.53778 9.8218 8.28629 9.8218 7.03479C9.8218 6.91361 9.81968 6.79138 9.82604 6.6702C9.83664 6.46545 9.95002 6.35263 10.1566 6.33382C10.2446 6.32547 10.3325 6.32547 10.4205 6.32442C11.478 6.32442 12.5366 6.32442 13.5941 6.32442C13.7001 6.32442 13.8061 6.32547 13.9099 6.34009C14.0678 6.36203 14.1631 6.46023 14.1822 6.61484C14.196 6.73497 14.1928 6.8572 14.1928 6.97942C14.1928 9.50018 14.1928 12.0209 14.1928 14.5417L14.1939 14.5396Z" fill="white"/>
<path d="M10.305 10.4362V11.9635C11.4526 11.672 12.5716 11.3879 13.7319 11.0933C13.7319 10.5793 13.7573 10.0894 13.7181 9.56077C12.5355 9.86372 11.4176 10.151 10.305 10.4362Z" fill="white"/>
<path d="M10.3092 9.92431C11.4748 9.62449 12.6108 9.37064 13.7086 9.04157V7.53518C12.5493 7.82873 11.4346 8.10974 10.3092 8.39493V9.92431Z" fill="white"/>
<path d="M10.2859 13.263C10.2986 13.4949 10.2255 13.7383 10.3527 13.9901C11.4907 13.6976 12.6055 13.4114 13.716 13.1262V11.602C12.5684 11.8945 11.4515 12.1797 10.2827 12.4774C10.2827 12.7794 10.2721 13.0217 10.2859 13.263Z" fill="white"/>
<path d="M10.3272 14.5772H13.7117V13.6443C12.5642 13.9368 11.4505 14.221 10.3357 14.5051C10.3325 14.5291 10.3294 14.5532 10.3272 14.5772Z" fill="white"/>
<path d="M10.2944 7.03792V7.88723C11.4208 7.60099 12.5186 7.32207 13.699 7.02225C13.0346 6.92405 10.6843 6.94181 10.2944 7.03792Z" fill="white"/>
</svg>
