<svg width="65" height="65" viewBox="0 0 65 65" fill="none" xmlns="http://www.w3.org/2000/svg">
<path d="M16.6636 45.0098V34.8279H18.508V39.1383H23.2261V34.8279H25.0755V45.0098H23.2261V40.6845H18.508V45.0098H16.6636ZM29.3994 45.1639C28.9155 45.1639 28.4797 45.0777 28.0919 44.9054C27.7074 44.7297 27.4025 44.4712 27.1771 44.1298C26.9551 43.7884 26.844 43.3675 26.844 42.867C26.844 42.4361 26.9236 42.0798 27.0827 41.7981C27.2418 41.5164 27.4588 41.291 27.7339 41.122C28.009 40.9529 28.3189 40.8253 28.6636 40.7392C29.0116 40.6497 29.3713 40.585 29.7425 40.5453C30.1899 40.4989 30.5528 40.4574 30.8312 40.421C31.1097 40.3812 31.3118 40.3216 31.4378 40.242C31.567 40.1591 31.6317 40.0315 31.6317 39.8592V39.8294C31.6317 39.4548 31.5206 39.1648 31.2986 38.9593C31.0765 38.7538 30.7567 38.6511 30.3391 38.6511C29.8982 38.6511 29.5486 38.7472 29.2901 38.9395C29.0348 39.1317 28.8625 39.3587 28.773 39.6206L27.0926 39.3819C27.2252 38.9179 27.4439 38.5301 27.7489 38.2186C28.0538 37.9037 28.4267 37.6684 28.8675 37.5126C29.3083 37.3535 29.7955 37.274 30.3291 37.274C30.697 37.274 31.0633 37.3171 31.4278 37.4032C31.7924 37.4894 32.1255 37.6319 32.4271 37.8308C32.7287 38.0263 32.9707 38.2931 33.153 38.6312C33.3386 38.9693 33.4314 39.3919 33.4314 39.899V45.0098H31.7013V43.9608H31.6416C31.5322 44.1729 31.3781 44.3717 31.1793 44.5574C30.9837 44.7396 30.7368 44.8871 30.4385 44.9998C30.1435 45.1092 29.7972 45.1639 29.3994 45.1639ZM29.8668 43.8414C30.228 43.8414 30.5412 43.7702 30.8064 43.6277C31.0715 43.4818 31.2754 43.2896 31.4179 43.051C31.5637 42.8123 31.6366 42.5521 31.6366 42.2704V41.3706C31.5803 41.417 31.4842 41.46 31.3483 41.4998C31.2157 41.5396 31.0666 41.5744 30.9008 41.6042C30.7351 41.6341 30.5711 41.6606 30.4087 41.6838C30.2463 41.707 30.1054 41.7269 29.9861 41.7434C29.7176 41.7799 29.4773 41.8395 29.2652 41.9224C29.0531 42.0053 28.8857 42.1213 28.7631 42.2704C28.6404 42.4163 28.5791 42.6052 28.5791 42.8372C28.5791 43.1686 28.7001 43.4189 28.942 43.5879C29.184 43.7569 29.4922 43.8414 29.8668 43.8414ZM40.3082 41.7981V37.3734H42.1079V45.0098H40.3629V43.6525H40.2834C40.111 44.0801 39.8276 44.4297 39.4332 44.7015C39.0421 44.9733 38.5599 45.1092 37.9865 45.1092C37.486 45.1092 37.0436 44.9982 36.6591 44.7761C36.2779 44.5507 35.9796 44.2243 35.7642 43.7967C35.5488 43.3658 35.441 42.8455 35.441 42.2356V37.3734H37.2408V41.9572C37.2408 42.4411 37.3733 42.8256 37.6385 43.1106C37.9036 43.3957 38.2517 43.5382 38.6825 43.5382C38.9477 43.5382 39.2045 43.4735 39.4531 43.3443C39.7017 43.215 39.9055 43.0228 40.0646 42.7676C40.227 42.5091 40.3082 42.1859 40.3082 41.7981ZM47.9718 37.3734V38.7654H43.5819V37.3734H47.9718ZM44.6657 35.5439H46.4654V42.7129C46.4654 42.9548 46.5019 43.1404 46.5748 43.2697C46.651 43.3957 46.7505 43.4818 46.8731 43.5282C46.9957 43.5746 47.1316 43.5978 47.2808 43.5978C47.3935 43.5978 47.4962 43.5895 47.589 43.573C47.6851 43.5564 47.7581 43.5415 47.8078 43.5282L48.111 44.9352C48.0149 44.9683 47.8774 45.0048 47.6984 45.0446C47.5227 45.0843 47.3073 45.1075 47.0521 45.1142C46.6013 45.1274 46.1953 45.0595 45.834 44.9103C45.4728 44.7579 45.1861 44.5225 44.974 44.2044C44.7652 43.8862 44.6624 43.4885 44.6657 43.0112V35.5439Z" fill="white"/>
<path d="M31.5111 12.1491C31.4114 12.06 31.276 12.0099 31.1348 12.0098C31.0649 12.0093 30.9954 12.0213 30.9308 12.0453C30.8661 12.0692 30.8075 12.1046 30.7585 12.1491L20.4834 21.3196V24.0098L31.1348 14.4984L41.7835 24.0098V21.3196L31.5111 12.1491Z" fill="white" stroke="white" stroke-width="0.133333"/>
<path d="M64 1L64 47L56 55L47 64L32.5 64L0.999997 64L1 0.999997L64 1Z" stroke="white"/>
</svg>
