<svg width="15" height="16" viewBox="0 0 15 16" fill="none" xmlns="http://www.w3.org/2000/svg">
<path d="M10.7012 11C13.0137 11 14.8887 12.875 14.8887 15.1875C14.8887 15.6562 14.5137 16 14.0449 16H1.70117C1.23242 16 0.888672 15.6562 0.888672 15.1875C0.888672 12.875 2.73242 11 5.04492 11H10.7012ZM2.45117 14.5H13.2949C12.9824 13.375 11.9512 12.5 10.7012 12.5H5.04492C3.79492 12.5 2.76367 13.375 2.45117 14.5ZM7.88867 3.5C6.48242 3.5 5.38867 4.625 5.38867 6C5.38867 6.625 5.60742 7.15625 5.95117 7.59375C5.60742 7.96875 5.38867 8.46875 5.38867 9C5.38867 9.0625 5.38867 9.09375 5.38867 9.125C4.48242 8.40625 3.88867 7.28125 3.88867 6C3.88867 3.8125 5.66992 2 7.88867 2C10.0762 2 11.8887 3.8125 11.8887 6C11.8887 6.46875 11.7949 6.90625 11.6387 7.3125C11.3887 7.71875 10.9199 8 10.3887 8H10.1074C10.0137 7.875 9.91992 7.71875 9.79492 7.59375C10.1387 7.15625 10.3887 6.625 10.3887 6C10.3887 4.625 9.26367 3.5 7.88867 3.5ZM2.38867 7C2.10742 7 1.88867 6.78125 1.88867 6.5V6C1.88867 2.71875 4.57617 0 7.88867 0C11.1699 0 13.8887 2.71875 13.8887 6V6.5C13.8574 8.4375 12.2949 10 10.3887 10H7.38867C6.82617 10 6.38867 9.5625 6.38867 9C6.38867 8.46875 6.82617 8 7.38867 8H8.38867C8.91992 8 9.38867 8.46875 9.38867 9H10.3887C11.7637 9 12.8887 7.90625 12.8887 6.5V6C12.8887 3.25 10.6387 1 7.88867 1C5.10742 1 2.88867 3.25 2.88867 6V6.5C2.88867 6.78125 2.63867 7 2.38867 7Z" fill="white"/>
</svg>
