<svg width="30" height="30" viewBox="0 0 30 30" fill="none" xmlns="http://www.w3.org/2000/svg">
<path d="M15 0C6.72894 0 0 6.72902 0 15.0001C0 23.271 6.72894 30 15 30C23.2711 30 30 23.271 30 15.0001C30 6.72909 23.2711 0 15 0ZM15 3.69744C22.0039 3.69744 25.4482 9.58533 25.8204 11.8278C25.8831 12.2055 25.5101 12.521 25.127 12.521C23.862 12.521 22.0007 11.8084 20.0129 10.7181C17.6335 9.41305 16.3969 9.13891 15 9.13891C13.4652 9.13891 12.2757 9.46291 9.98744 10.7181C7.84844 11.8912 5.95915 12.521 4.87295 12.521C4.49004 12.521 4.17983 12.2107 4.17983 11.8278C4.17976 10.0129 7.89472 3.69744 15 3.69744ZM11.7037 25.8118C6.32655 24.1691 4.15952 19.0802 4.15952 18.1085C4.15952 17.5567 4.67968 17.403 4.89382 17.4093C10.2724 17.8537 12.2841 19.8906 12.632 25.0865C12.6746 25.5554 12.2291 25.997 11.7037 25.8118ZM15 17.4898C13.6249 17.4898 12.5103 16.3751 12.5103 15.0001C12.5103 13.6251 13.6249 12.5102 15 12.5102C16.3751 12.5102 17.4895 13.6251 17.4895 15.0001C17.4895 16.3751 16.3751 17.4898 15 17.4898ZM18.0637 25.8516C17.5333 25.8101 17.353 25.3997 17.3687 25.0856C17.7164 19.8908 19.7273 17.8539 25.1031 17.4093C25.5193 17.3686 25.9694 17.8079 25.8039 18.3211C24.3818 22.9383 20.6827 25.1924 18.0637 25.8516Z" fill="white"/>
</svg>
